# xmcd
#
# Track frame offsets: 
#        150
#        22782
#        38127
#        53668
#        76394
#        94694
#        121685
#        146826
#        171301
#        187594
#        204790
#        224239
#        245761
#
# Disc length: 3530 seconds
#
# Revision: 0
# Processed by: cddbd v1.5.2PL0 Copyright (c) Steve Scherf et al.
# Submitted via: ExactAudioCopyFreeDBPlugin 1.0
#
DISCID=aa0dc80d
DTITLE=Suara - 声
DYEAR=2015
DGENRE=JPop
TTITLE0=ヌエドリ
TTITLE1=Future World
TTITLE2=Fly away -大空へ-
TTITLE3=声を聴かせて
TTITLE4=すべてをあなたに
TTITLE5=恋夢
TTITLE6=脆弱
TTITLE7=君の前では少年のまま
TTITLE8=虹色の未来
TTITLE9=I'm a beast
TTITLE10=Song of...
TTITLE11=Dream
TTITLE12=初空
EXTD=
EXTT0=
EXTT1=
EXTT2=
EXTT3=
EXTT4=
EXTT5=
EXTT6=
EXTT7=
EXTT8=
EXTT9=
EXTT10=
EXTT11=
EXTT12=
PLAYORDER=
